<?xml version="1.0" standalone="no"?>

<svg 
     version="1.1"
     baseProfile="full"
     xmlns="http://www.w3.org/2000/svg"
     xmlns:xlink="http://www.w3.org/1999/xlink"
     xmlns:ev="http://www.w3.org/2001/xml-events"
     x="0px"
     y="0px"
     width="4200px"
     height="2300px"
     viewBox="0 0 4200 2300"
     >
<title>my template svg</title>
<desc>my template svg</desc>


<!--
<g style="stroke:rgb(0,255,0);stroke-width:1">
  <line x1="0 " y1="0" x2="0 " y2="100"  />
  <line x1="16" y1="0" x2="16" y2="100"  />
  <line x1="32" y1="0" x2="32" y2="100"  />
  <line x1="48" y1="0" x2="48" y2="100"  />
  <line x1="64" y1="0" x2="64" y2="100"  />

  <line x1="0" y1="0 " x2="100" y2="0 "  />
  <line x1="0" y1="16" x2="100" y2="16"  />
  <line x1="0" y1="32" x2="100" y2="32"  />
  <line x1="0" y1="48" x2="100" y2="48"  />
  
</g>	
-->


<symbol id="grid-net-1000" viewBox="0 0 1110 1010" width="1110px" height="1010px">
	<g stroke="#000000" stroke-linecap="round" stroke-width="0.5" stroke-dasharray="4,12" fill="none" stroke-opacity="0.2">

		<path d="M 14 16  L  1408   16 " />
		<path d="M 14 32  L  1408   32 " />
		<path d="M 14 48  L  1408   48 " />
		<path d="M 14 64  L  1408   64 " />
		<path d="M 14 80  L  1408   80 " />
		<path d="M 14 96  L  1408   96 " />
		<path d="M 14 112  L 1408  112 " />
		<path d="M 14 128  L 1408  128 " />
		<path d="M 14 144  L 1408  144 " />
		<path d="M 14 160  L 1408  160 " />
		<path d="M 14 176  L 1408  176 " />
		<path d="M 14 192  L 1408  192 " />
		<path d="M 14 208  L 1408  208 " />
		<path d="M 14 224  L 1408  224 " />
		<path d="M 14 240  L 1408  240 " />
		<path d="M 14 256  L 1408  256 " />
		<path d="M 14 272  L 1408  272 " />
		<path d="M 14 288  L 1408  288 " />
		<path d="M 14 304  L 1408  304 " />
		<path d="M 14 320  L 1408  320 " />
		<path d="M 14 336  L 1408  336 " />
		<path d="M 14 352  L 1408  352 " />
		<path d="M 14 368  L 1408  368 " />
		<path d="M 14 384  L 1408  384 " />
		<path d="M 14 400  L 1408  400 " />
		<path d="M 14 416  L 1408  416 " />
		<path d="M 14 432  L 1408  432 " />
		<path d="M 14 448  L 1408  448 " />
		<path d="M 14 464  L 1408  464 " />
		<path d="M 14 480  L 1408  480 " />
		<path d="M 14 496  L 1408  496 " />
		<path d="M 14 512  L 1408  512 " />
		<path d="M 14 528  L 1408  528 " />
		<path d="M 14 544  L 1408  544 " />
		<path d="M 14 560  L 1408  560 " />
		<path d="M 14 576  L 1408  576 " />
		<path d="M 14 592  L 1408  592 " />
		<path d="M 14 608  L 1408  608 " />
		<path d="M 14 624  L 1408  624 " />
		<path d="M 14 640  L 1408  640 " />
		<path d="M 14 656  L 1408  656 " />
		<path d="M 14 672  L 1408  672 " />
		<path d="M 14 688  L 1408  688 " />
		<path d="M 14 704  L 1408  704 " />
		<path d="M 14 720  L 1408  720 " />
		<path d="M 14 736  L 1408  736 " />
		<path d="M 14 752  L 1408  752 " />
		<path d="M 14 768  L 1408  768 " />
		<path d="M 14 784  L 1408  784 " />
		<path d="M 14 800  L 1408  800 " />
		<path d="M 14 816  L 1408  816 " />
		<path d="M 14 832  L 1408  832 " />
		<path d="M 14 848  L 1408  848 " />
		<path d="M 14 864  L 1408  864 " />
		<path d="M 14 880  L 1408  880 " />
		
		<path d="M 16  14  L 16  610 " />
		<path d="M 32  14  L 32  610 " />
		<path d="M 48  14  L 48  610 " />
		<path d="M 64  14  L 64  610 " />
		<path d="M 80  14  L 80  610 " />
		<path d="M 96  14  L 96  610 " />
		<path d="M 112 14  L 112 610 " />
		<path d="M 128 14  L 128 610 " />
		<path d="M 144 14  L 144 610 " />
		<path d="M 160 14  L 160 610 " />
		<path d="M 176 14  L 176 610 " />
		<path d="M 192 14  L 192 610 " />
		<path d="M 208 14  L 208 610 " />
		<path d="M 224 14  L 224 610 " />
		<path d="M 240 14  L 240 610 " />
		<path d="M 256 14  L 256 610 " />
		<path d="M 272 14  L 272 610 " />
		<path d="M 288 14  L 288 610 " />
		<path d="M 304 14  L 304 610 " />
		<path d="M 320 14  L 320 610 " />
		<path d="M 336 14  L 336 610 " />
		<path d="M 352 14  L 352 610 " />
		<path d="M 368 14  L 368 610 " />
		<path d="M 384 14  L 384 610 " />
		<path d="M 400 14  L 400 610 " />
		<path d="M 416 14  L 416 610 " />
		<path d="M 432 14  L 432 610 " />
		<path d="M 448 14  L 448 610 " />
		<path d="M 464 14  L 464 610 " />
		<path d="M 480 14  L 480 610 " />
		<path d="M 496 14  L 496 610 " />
		<path d="M 512 14  L 512 610 " />
		<path d="M 528 14  L 528 610 " />
		<path d="M 544 14  L 544 610 " />
		<path d="M 560 14  L 560 610 " />
		<path d="M 576 14  L 576 610 " />
		<path d="M 592 14  L 592 610 " />
		<path d="M 608 14  L 608 610 " />
		<path d="M 624 14  L 624 610 " />
		<path d="M 640 14  L 640 610 " />
		<path d="M 656 14  L 656 610 " />
		<path d="M 672 14  L 672 610 " />
		<path d="M 688 14  L 688 610 " />
		<path d="M 704 14  L 704 610 " />
		<path d="M 720 14  L 720 610 " />
		<path d="M 736 14  L 736 610 " />
		<path d="M 752 14  L 752 610 " />
		<path d="M 768 14  L 768 610 " />
		<path d="M 784 14  L 784 610 " />
		<path d="M 800 14  L 800 610 " />
		<path d="M 816 14  L 816 610 " />
		<path d="M 832 14  L 832 610 " />
		<path d="M 848 14  L 848 610 " />
		<path d="M 864 14  L 864 610 " />
		<path d="M 880 14  L 880 610 " />
		<path d="M 896  14  L 896  610 " />
		<path d="M 912  14  L 912  610 " />
		<path d="M 928  14  L 928  610 " />
		<path d="M 944  14  L 944  610 " />
		<path d="M 960  14  L 960  610 " />
		<path d="M 976  14  L 976  610 " />
		<path d="M 992  14  L 992  610 " />
		<path d="M 1008 14  L 1008 610 " />
		<path d="M 1024 14  L 1024 610 " />
		<path d="M 1040 14  L 1040 610 " />
		<path d="M 1056 14  L 1056 610 " />
		<path d="M 1072 14  L 1072 610 " />
		<path d="M 1088 14  L 1088 610 " />
		<path d="M 1104 14  L 1104 610 " />
		<path d="M 1120 14  L 1120 610 " />
		<path d="M 1136 14  L 1136 610 " />
		<path d="M 1152 14  L 1152 610 " />
		<path d="M 1168 14  L 1168 610 " />
		<path d="M 1184 14  L 1184 610 " />
		<path d="M 1200 14  L 1200 610 " />
		<path d="M 1216 14  L 1216 610 " />
		<path d="M 1232 14  L 1232 610 " />
		<path d="M 1248 14  L 1248 610 " />
		<path d="M 1264 14  L 1264 610 " />
		<path d="M 1280 14  L 1280 610 " />
		<path d="M 1296 14  L 1296 610 " />
	</g>
</symbol>

<symbol id="grid-net1" viewBox="0 0 4010 3010" width="4010px" height="3010px">
  <use xlink:href="#grid-net-1000" transform="translate(0,    0)"/>
  <use xlink:href="#grid-net-1000" transform="translate(1000, 0)"/>
  <use xlink:href="#grid-net-1000" transform="translate(2000, 0)"/>
  <use xlink:href="#grid-net-1000" transform="translate(3000, 0)"/>
  
  <use xlink:href="#grid-net-1000" transform="translate(0,    1000)"/>
  <use xlink:href="#grid-net-1000" transform="translate(1000, 1000)"/>
  <use xlink:href="#grid-net-1000" transform="translate(2000, 1000)"/>
  <use xlink:href="#grid-net-1000" transform="translate(3000, 1000)"/>
  
  <use xlink:href="#grid-net-1000" transform="translate(0,    2000)"/>
  <use xlink:href="#grid-net-1000" transform="translate(1000, 2000)"/>
  <use xlink:href="#grid-net-1000" transform="translate(2000, 2000)"/>
  <use xlink:href="#grid-net-1000" transform="translate(3000, 2000)"/>
</symbol>


<symbol id="grid-net3" viewBox="0 0 4010 3010" width="4010px" height="3010px">
  <use xlink:href="#grid-net-1000" transform="scale(4) translate(0,    0)"/>
  
  <use xlink:href="#grid-net-1000" transform="scale(4) translate(0,    1000)"/>
  
  <use xlink:href="#grid-net-1000" transform="scale(4) translate(0,    2000)"/>
</symbol>


<symbol id="grid-net4" viewBox="0 0 4010 3010" width="4010px" height="3010px">
  <use xlink:href="#grid-net-1000" transform="scale(8) translate(0,    0)"/>
</symbol>


<symbol id="grid-net0" viewBox="0 0 4010 3010" width="4010px" height="3010px">
  <use xlink:href="#grid-net1" transform="scale(0.5) translate(0,    0)"/>
  <use xlink:href="#grid-net1" transform="scale(0.5) translate(4000,    0)"/>

  <use xlink:href="#grid-net1" transform="scale(0.5) translate(0,    3000)"/>
  <use xlink:href="#grid-net1" transform="scale(0.5) translate(4000, 3000)"/>
</symbol>

<symbol id="grid-net-1" viewBox="0 0 4010 3010" width="4010px" height="3010px">
  <use xlink:href="#grid-net1" transform="scale(0.25) translate(0,    0)"/>
  <use xlink:href="#grid-net1" transform="scale(0.25) translate(4000,    0)"/>
  <use xlink:href="#grid-net1" transform="scale(0.25) translate(8000,    0)"/>
  <use xlink:href="#grid-net1" transform="scale(0.25) translate(12000,    0)"/>
                                                  
  <use xlink:href="#grid-net1" transform="scale(0.25) translate(0,    3000)"/>
  <use xlink:href="#grid-net1" transform="scale(0.25) translate(4000, 3000)"/>
  <use xlink:href="#grid-net1" transform="scale(0.25) translate(8000, 3000)"/>
  <use xlink:href="#grid-net1" transform="scale(0.25) translate(12000, 3000)"/>
                                                  
  <use xlink:href="#grid-net1" transform="scale(0.25) translate(0,    6000)"/>
  <use xlink:href="#grid-net1" transform="scale(0.25) translate(4000, 6000)"/>
  <use xlink:href="#grid-net1" transform="scale(0.25) translate(8000, 6000)"/>
  <use xlink:href="#grid-net1" transform="scale(0.25) translate(12000, 6000)"/>
</symbol>

<symbol id="grid-net2" viewBox="0 0 4010 3010" width="4010px" height="3010px">
  <use xlink:href="#grid-net-1000" transform="scale(2) translate(0,    0)"/>
  <use xlink:href="#grid-net-1000" transform="scale(2) translate(1000, 0)"/>
  
  <use xlink:href="#grid-net-1000" transform="scale(2) translate(0,    1000)"/>
  <use xlink:href="#grid-net-1000" transform="scale(2) translate(1000, 1000)"/>
  
  <use xlink:href="#grid-net-1000" transform="scale(2) translate(0,    2000)"/>
  <use xlink:href="#grid-net-1000" transform="scale(2) translate(1000, 2000)"/>
</symbol>

<g id="grid-g">



</g>




</svg>
